<?xml version="1.0"?><!DOCTYPE svg  PUBLIC '-//W3C//DTD SVG 1.1//EN'  'http://www.w3.org/Graphics/SVG/1.1/DTD/svg11.dtd'><svg xmlns="http://www.w3.org/2000/svg" xmlns:xlink="http://www.w3.org/1999/xlink" xmlns:serif="http://www.serif.com/" width="100%" height="100%" viewBox="0 0 100 101" version="1.1" xml:space="preserve" style="fill-rule:evenodd;clip-rule:evenodd;stroke-linejoin:round;stroke-miterlimit:2;"><g transform="matrix(1,0,0,1,0,-294)"><g id="linkedin" transform="matrix(1,0,0,1,0,294.895)"><rect x="0" y="0" width="100" height="100" style="fill:none;"/><g transform="matrix(-1,1.22465e-16,-1.22465e-16,-1,96.7213,91.6566)"><path d="M88.294,18.742L88.294,64.571C88.294,76.618 78.513,86.399 66.466,86.399L26.977,86.399C14.929,86.399 5.149,76.618 5.149,64.571L5.149,18.742C5.149,6.695 14.929,-3.086 26.977,-3.086L66.466,-3.086C78.513,-3.086 88.294,6.695 88.294,18.742ZM9.315,25.081L9.315,64.571C9.315,74.319 17.229,82.232 26.977,82.232L66.466,82.232C76.214,82.232 84.127,74.319 84.127,64.571L84.127,25.081C84.127,15.334 76.214,7.42 66.466,7.42L26.977,7.42C17.229,7.42 9.315,15.334 9.315,25.081Z"/></g><g transform="matrix(1,0,0,1,-4.58712,-294.725)"><path d="M39.589,319.574C42.211,319.574 44.333,321.7 44.333,324.314C44.333,326.934 42.211,329.062 39.589,329.062C36.963,329.062 34.839,326.934 34.839,324.314C34.839,321.7 36.963,319.574 39.589,319.574ZM35.491,332.654L43.685,332.654L43.685,358.978L35.491,358.978L35.491,332.654ZM48.819,332.654L56.667,332.654L56.667,336.256L56.775,336.256C57.869,334.184 60.539,332.004 64.523,332.004C72.807,332.004 74.335,337.452 74.335,344.54L74.335,358.978L66.159,358.978L66.159,346.18C66.159,343.126 66.099,339.2 61.905,339.2C57.647,339.2 56.997,342.524 56.997,345.958L56.997,358.978L48.819,358.978L48.819,332.654Z" style="fill-rule:nonzero;"/></g></g></g></svg>