<?xml version="1.0"?><!DOCTYPE svg  PUBLIC '-//W3C//DTD SVG 1.1//EN'  'http://www.w3.org/Graphics/SVG/1.1/DTD/svg11.dtd'><svg xmlns="http://www.w3.org/2000/svg" xmlns:xlink="http://www.w3.org/1999/xlink" xmlns:serif="http://www.serif.com/" width="100%" height="100%" viewBox="0 0 101 100" version="1.1" xml:space="preserve" style="fill-rule:evenodd;clip-rule:evenodd;stroke-linejoin:round;stroke-miterlimit:2;"><g transform="matrix(1,0,0,1,-124,0)"><g id="X" transform="matrix(1,0,0,1,124.14,0)"><rect x="0" y="0" width="100" height="100" style="fill:none;"/><g transform="matrix(-1,1.22465e-16,-1.22465e-16,-1,96.7213,91.6566)"><path d="M88.294,18.742L88.294,64.571C88.294,76.618 78.513,86.399 66.466,86.399L26.977,86.399C14.929,86.399 5.149,76.618 5.149,64.571L5.149,18.742C5.149,6.695 14.929,-3.086 26.977,-3.086L66.466,-3.086C78.513,-3.086 88.294,6.695 88.294,18.742ZM9.315,25.081L9.315,64.571C9.315,74.319 17.229,82.232 26.977,82.232L66.466,82.232C76.214,82.232 84.127,74.319 84.127,64.571L84.127,25.081C84.127,15.334 76.214,7.42 66.466,7.42L26.977,7.42C17.229,7.42 9.315,15.334 9.315,25.081Z"/></g><g transform="matrix(1.86014,0,0,1.86014,-166.671,-440.999)"><path d="M115.935,263.102L115.096,261.901L108.413,252.342L111.29,252.342L116.683,260.056L117.523,261.258L124.533,271.285L121.656,271.285L115.935,263.103L115.935,263.102ZM118.501,260.12L126.405,250.932L124.532,250.932L117.669,258.91L112.187,250.932L105.865,250.932L114.154,262.996L105.865,272.631L107.738,272.631L114.986,264.206L120.775,272.631L127.097,272.631L118.5,260.12L118.501,260.12Z" style="fill-rule:nonzero;"/></g></g></g></svg>