<?xml version="1.0"?><!DOCTYPE svg  PUBLIC '-//W3C//DTD SVG 1.1//EN'  'http://www.w3.org/Graphics/SVG/1.1/DTD/svg11.dtd'><svg xmlns="http://www.w3.org/2000/svg" xmlns:xlink="http://www.w3.org/1999/xlink" xmlns:serif="http://www.serif.com/" width="100%" height="100%" viewBox="0 0 100 100" version="1.1" xml:space="preserve" style="fill-rule:evenodd;clip-rule:evenodd;stroke-linejoin:round;stroke-miterlimit:2;"><rect id="facebook" x="0" y="0" width="100" height="100" style="fill:none;"/><g id="facebook1"><g transform="matrix(-1,1.22465e-16,-1.22465e-16,-1,96.7213,91.6566)"><path d="M88.294,18.742L88.294,64.571C88.294,76.618 78.513,86.399 66.466,86.399L26.977,86.399C14.929,86.399 5.149,76.618 5.149,64.571L5.149,18.742C5.149,6.695 14.929,-3.086 26.977,-3.086L66.466,-3.086C78.513,-3.086 88.294,6.695 88.294,18.742ZM9.315,25.081L9.315,64.571C9.315,74.319 17.229,82.232 26.977,82.232L66.466,82.232C76.214,82.232 84.127,74.319 84.127,64.571L84.127,25.081C84.127,15.334 76.214,7.42 66.466,7.42L26.977,7.42C17.229,7.42 9.315,15.334 9.315,25.081Z"/></g><g transform="matrix(1.65173,0,0,1.65173,10.6377,-387.075)"><path d="M26.467,276.972L26.467,263.691L30.895,263.691L31.738,258.197L26.467,258.197L26.467,254.632C26.467,253.129 27.203,251.664 29.564,251.664L31.96,251.664L31.96,246.986C31.96,246.986 29.785,246.615 27.706,246.615C23.365,246.615 20.527,249.246 20.527,254.01L20.527,258.197L15.702,258.197L15.702,263.691L20.527,263.691L20.527,276.972L26.467,276.972Z" style="fill-rule:nonzero;"/></g></g></svg>