<?xml version="1.0"?><!DOCTYPE svg  PUBLIC '-//W3C//DTD SVG 1.1//EN'  'http://www.w3.org/Graphics/SVG/1.1/DTD/svg11.dtd'><svg xmlns="http://www.w3.org/2000/svg" xmlns:xlink="http://www.w3.org/1999/xlink" xmlns:serif="http://www.serif.com/" width="100%" height="100%" viewBox="0 0 101 101" version="1.1" xml:space="preserve" style="fill-rule:evenodd;clip-rule:evenodd;stroke-linejoin:round;stroke-miterlimit:2;"><g transform="matrix(1,0,0,1,-124,-147)"><g id="youtube" transform="matrix(1,0,0,1,124.14,147.227)"><rect x="0" y="0" width="100" height="100" style="fill:none;"/><g transform="matrix(-1,1.22465e-16,-1.22465e-16,-1,96.7213,91.6566)"><path d="M88.294,18.742L88.294,64.571C88.294,76.618 78.513,86.399 66.466,86.399L26.977,86.399C14.929,86.399 5.149,76.618 5.149,64.571L5.149,18.742C5.149,6.695 14.929,-3.086 26.977,-3.086L66.466,-3.086C78.513,-3.086 88.294,6.695 88.294,18.742ZM9.315,25.081L9.315,64.571C9.315,74.319 17.229,82.232 26.977,82.232L66.466,82.232C76.214,82.232 84.127,74.319 84.127,64.571L84.127,25.081C84.127,15.334 76.214,7.42 66.466,7.42L26.977,7.42C17.229,7.42 9.315,15.334 9.315,25.081Z"/></g><g transform="matrix(2.18273,0,0,2.18273,-204.247,-671.302)"><path d="M120.416,328.995L114.592,331.877C114.363,332.001 113.587,331.835 113.587,331.576L113.587,325.66C113.587,325.397 114.37,325.232 114.598,325.362L120.174,328.396C120.408,328.529 120.653,328.867 120.416,328.995ZM128.056,325.52C128.056,322.715 125.781,320.44 122.976,320.44L109.986,320.44C107.181,320.44 104.906,322.715 104.906,325.52L104.906,331.565C104.906,334.37 107.181,336.645 109.986,336.645L122.976,336.645C125.781,336.645 128.056,334.37 128.056,331.565L128.056,325.52Z" style="fill-rule:nonzero;"/></g></g></g></svg>